<svg width="1036" height="422" viewBox="0 0 1036 422" fill="none" xmlns="http://www.w3.org/2000/svg">
<path d="M262.5 171.5C269.836 171.954 280.5 177 280.5 177L277 188.5L269 184.5H262.5C259.571 184.5 257.507 182.986 255 184.5C252.532 185.99 250.863 188.188 251.5 191C252.234 194.237 259 195 259 195L269 198C269 198 274.083 200.079 277 202C280.237 204.132 284.5 208.5 284.5 208.5C284.5 208.5 285.25 214.066 284.5 217.5C283.717 221.084 282.942 223.262 280.5 226C277.186 229.715 273.784 230.123 269 231.5C265.205 232.592 262.941 232.75 259 233C256.077 233.186 254.404 233.383 251.5 233C248.07 232.548 246.227 231.749 243 230.5C239.335 229.082 234 226 234 226L239.5 213.5C239.5 213.5 244.601 216.12 248 217.5C250.689 218.592 252.14 219.502 255 220C257.886 220.502 259.674 220.771 262.5 220C264.606 219.426 266.548 219.464 267.5 217.5C268.182 216.094 267.935 215 267.5 213.5C266.427 209.801 259 208.5 259 208.5L248 205.5C248 205.5 242.282 204.268 239.5 202C236.308 199.397 234 193 234 193C234 193 235.032 181.867 239.5 177C245.745 170.197 253.282 170.929 262.5 171.5Z" fill="#8D50D0"/>
<path d="M350 173H297.5V186H315.5V231.5H332.5V186H350V173Z" fill="#994CBE"/>
<ellipse cx="397.5" cy="202" rx="32.5" ry="31" fill="#A448AB"/>
<ellipse cx="398" cy="201.5" rx="16" ry="16.5" fill="black"/>
<path d="M482.5 185.5C487.914 185.582 495 191.5 495 191.5L505.5 182L499.5 176C499.5 176 494.589 172.76 491 172C487.753 171.312 482.5 172 482.5 172C482.5 172 475.675 170.989 471.5 172C467.934 172.863 466.166 174.146 463 176C460.336 177.56 458.638 178.273 456.5 180.5C454.872 182.196 454.194 183.393 453.048 185.415L453 185.5C450.473 189.959 449.574 192.907 449 198C448.672 200.91 448.799 202.578 449 205.5C449.257 209.247 449.119 211.507 450.5 215C451.994 218.779 453.66 220.595 456.5 223.5C459.23 226.292 460.938 227.898 464.5 229.5C468.132 231.134 474.5 231.5 474.5 231.5C474.5 231.5 479.321 232.97 482.5 233C487.569 233.049 495 229.5 495 229.5L505.5 223.5L497.5 212C497.5 212 489.047 219.345 482.5 219.5C477.129 219.627 473.079 219.007 469.5 215C466.497 211.638 466.158 208.505 466 204C465.822 198.934 466.3 195.432 469.5 191.5C473.029 187.163 476.909 185.415 482.5 185.5Z" fill="#B04598"/>
<path d="M600.5 230.5V203H618V217H636C646.756 202.991 648.087 195.883 636 185.5H600.5V173H636C668.537 190.234 670.669 209.729 640.5 230.5H600.5Z" fill="#C93B73"/>
<path d="M682.5 185.5V173H728V185.5H682.5Z" fill="#D43860"/>
<path d="M682.5 208V195H728V208H682.5Z" fill="#D43860"/>
<path d="M682.5 230.5V219H728V230.5H682.5Z" fill="#D43860"/>
<path d="M80 267V160H97.5V168.5H161V160H177.5V267H80Z" fill="#8135D6"/>
<path d="M113.5 148.5H104V164H154V148.5H143V140.5L133.5 135H124L113.5 140.5V148.5Z" fill="#8135D6"/>
<path d="M781.701 184.949C787.115 185.031 794.201 190.949 794.201 190.949L804.701 181.449L798.701 175.449C798.701 175.449 793.79 172.21 790.201 171.449C786.954 170.761 781.701 171.449 781.701 171.449C781.701 171.449 774.876 170.438 770.701 171.449C767.136 172.312 765.367 173.595 762.201 175.449C759.537 177.01 757.839 177.722 755.701 179.949C754.073 181.645 753.395 182.842 752.249 184.865L752.201 184.949C749.674 189.408 748.776 192.356 748.201 197.449C747.873 200.36 748 202.027 748.201 204.949C748.459 208.696 748.32 210.956 749.701 214.449C751.195 218.228 752.861 220.044 755.701 222.949C758.431 225.742 760.14 227.347 763.701 228.949C767.333 230.583 773.701 230.949 773.701 230.949C773.701 230.949 778.523 232.419 781.701 232.449C786.77 232.498 794.201 228.949 794.201 228.949L804.701 222.949L796.701 211.449C796.701 211.449 788.249 218.794 781.701 218.949C776.33 219.076 772.28 218.456 768.701 214.449C765.698 211.087 765.359 207.954 765.201 203.449C765.024 198.383 765.502 194.881 768.701 190.949C772.23 186.612 776.11 184.865 781.701 184.949Z" fill="#DE344E"/>
<path d="M825 214L864 173L881 173.5L858.5 198.5L882.5 231H864L846.5 210.5L841.5 217V231H825V214Z" fill="#EA3039"/>
<path d="M841.5 173H825V195L841.5 179.5V173Z" fill="#EA3039"/>
<path d="M525.5 214L564.5 173L581.5 173.5L559 198.5L583 231H564.5L547 210.5L542 217V231H525.5V214Z" fill="#BC4086"/>
<path d="M542 173H525.5V195L542 179.5V173Z" fill="#BC4086"/>
<rect x="119" y="211" width="40" height="7" fill="black"/>
<rect x="119" y="191" width="40" height="7" fill="black"/>
<rect x="119" y="231" width="40" height="7" fill="black"/>
<circle cx="104.5" cy="193.5" r="4.5" fill="black"/>
<circle cx="104.5" cy="215.5" r="4.5" fill="black"/>
<circle cx="104.5" cy="233.5" r="4.5" fill="black"/>
</svg>
